<?xml version="1.0" encoding="utf-8"?>
<!-- Generator: Adobe Illustrator 27.2.0, SVG Export Plug-In . SVG Version: 6.00 Build 0)  -->
<svg version="1.1" id="PRINT" xmlns="http://www.w3.org/2000/svg" xmlns:xlink="http://www.w3.org/1999/xlink" x="0px" y="0px"
	 viewBox="0 0 500 500" style="enable-background:new 0 0 500 500;" xml:space="preserve">
<style type="text/css">
	.st0{fill:#FFFFFF;}
	.st1{fill:#FFC931;}
	.st2{font-family:'OrelegaOne-Regular';}
	.st3{font-size:126.9537px;}
	.st4{fill:#F6B128;}
	.st5{font-family:'Poppins-Medium';}
	.st6{font-size:29.0359px;}
</style>
<g>
	<rect id="CUSTOM-background" class="st0" width="500" height="500"/>
	<g id="CUSTOM-group_00000070120913197995832170000003214920053091963527_">
		<g>
			
				<ellipse transform="matrix(0.7071 -0.7071 0.7071 0.7071 -44.4358 225.5125)" class="st1" cx="250" cy="166.4" rx="94.82" ry="94.82"/>
			<path d="M250,264.63c-54.17,0-98.24-44.07-98.24-98.24S195.83,68.16,250,68.16c54.17,0,98.24,44.07,98.24,98.24
				S304.17,264.63,250,264.63z M250,74.98c-50.4,0-91.41,41.01-91.41,91.41s41.01,91.41,91.41,91.41c50.4,0,91.41-41.01,91.41-91.41
				S300.4,74.98,250,74.98z"/>
		</g>
		<g id="CUSTOM-group">
			<path class="st0" d="M252.1,120.75c0,0-20.25-11.34-27.54,5.67c0,0-23.08,9.72-11.74,35.23c0,0-14.58,21.87,10.53,31.99
				c0,0-3.64,12.15,12.15,15.79l-0.4,12.55l4.86,2.02c0,0,0.4,27.94,23.49,3.64l5.67-19.03l10.53-14.17c0,0,25.92-6.88,9.72-30.78
				c0,0,17.82-21.06-10.12-34.02C279.24,129.66,280.86,106.98,252.1,120.75z"/>
			<g>
				<g>
					<path d="M282.26,126.01c-2.16-8.19-9.64-14.1-18.32-14.1c-4.73,0-9.2,1.75-12.64,4.83c-3.44-3.08-7.91-4.83-12.64-4.83
						c-8.68,0-16.15,5.91-18.32,14.1c-9.42,3.41-15.81,12.36-15.81,22.55c0,5.03,1.56,9.86,4.45,13.9
						c-2.89,4.05-4.45,8.88-4.45,13.9c0,10.19,6.39,19.14,15.81,22.55c1.61,6.11,6.18,10.95,12,13.01v7.41
						c0,3.52,2.07,6.57,5.06,7.99v0.1c0,7.67,6.24,13.9,13.9,13.9c7.67,0,13.9-6.24,13.9-13.9v-0.1c2.99-1.42,5.06-4.47,5.06-7.99
						v-7.41c5.82-2.07,10.38-6.9,12-13.01c9.42-3.41,15.81-12.36,15.81-22.55c0-5.03-1.56-9.86-4.45-13.9
						c2.89-4.05,4.45-8.88,4.45-13.9C298.07,138.37,291.69,129.42,282.26,126.01L282.26,126.01z M261.42,220.6H241.2
						c-0.7,0-1.26-0.57-1.26-1.26v-6.32h22.75v6.32C262.68,220.04,262.12,220.6,261.42,220.6z M227.36,129.68
						c0.71-5.67,5.6-10.19,11.31-10.19c3.46,0,6.69,1.57,8.85,4.24v48.34c-4.41-1.22-7.58-4.5-7.58-8.34c0-2.09-1.7-3.79-3.79-3.79
						c-2.09,0-3.79,1.7-3.79,3.79c0,7.93,6.52,14.57,15.17,16.1v25.61h-8.85c-5.72,0-10.61-4.54-11.32-10.21
						c-0.34-3.33,0.8-6.73,3.27-9.21c1.48-1.48,1.48-3.88,0-5.36c-1.48-1.48-3.88-1.48-5.36,0c-2.74,2.74-4.49,6.16-5.19,9.77
						c-4.84-2.91-7.94-8.18-7.94-14.06c0-4.21,1.61-8.22,4.52-11.29c1.39-1.46,1.39-3.76,0-5.22c-2.92-3.07-4.52-7.08-4.52-11.29
						c0-5.88,3.11-11.15,7.95-14.06c0.72,3.65,2.5,7.07,5.19,9.77c0.74,0.74,1.71,1.11,2.68,1.11c0.97,0,1.94-0.37,2.68-1.11
						c1.48-1.48,1.48-3.88,0-5.36C228.2,136.48,227,133.07,227.36,129.68L227.36,129.68z M251.31,233.75c-3.23,0-5.9-2.43-6.27-5.56
						h12.55C257.2,231.32,254.54,233.75,251.31,233.75L251.31,233.75z M275.26,129.67c0.35,3.4-0.84,6.8-3.27,9.23
						c-1.48,1.48-1.48,3.88,0,5.36c0.74,0.74,1.71,1.11,2.68,1.11c0.97,0,1.94-0.37,2.68-1.11c2.7-2.7,4.47-6.11,5.19-9.77
						c4.84,2.91,7.95,8.18,7.95,14.06c0,4.21-1.61,8.22-4.52,11.29c-1.39,1.46-1.39,3.76,0,5.22c2.92,3.07,4.52,7.08,4.52,11.29
						c0,5.88-3.11,11.15-7.95,14.06c-0.7-3.61-2.45-7.03-5.19-9.77c-1.48-1.48-3.88-1.48-5.36,0c-1.48,1.48-1.48,3.88,0,5.36
						c2.48,2.48,3.61,5.88,3.27,9.21c-0.71,5.67-5.6,10.21-11.32,10.21h-8.85v-52.58c4.41,1.22,7.58,4.5,7.58,8.34
						c0,2.09,1.7,3.79,3.79,3.79c2.09,0,3.79-1.7,3.79-3.79c0-7.94-6.52-14.57-15.17-16.1v-21.37c2.15-2.67,5.39-4.24,8.85-4.24
						C269.66,119.49,274.55,124,275.26,129.67z"/>
					<path d="M301.49,135.49c1.16,1.74,3.52,2.21,5.26,1.05l7.58-5.06c1.74-1.16,2.21-3.52,1.05-5.26
						c-1.16-1.74-3.52-2.21-5.26-1.05l-7.58,5.06C300.8,131.4,300.33,133.75,301.49,135.49z"/>
					<path d="M314.33,193.43l-7.58-5.06c-1.74-1.16-4.1-0.69-5.26,1.05c-1.16,1.74-0.69,4.1,1.05,5.26l7.58,5.06
						c1.74,1.16,4.1,0.69,5.26-1.05C316.55,196.95,316.08,194.6,314.33,193.43z"/>
					<path d="M200.07,130.24l-7.58-5.06c-1.74-1.16-4.1-0.69-5.26,1.05c-1.16,1.74-0.69,4.1,1.05,5.26l7.58,5.06
						c1.74,1.16,4.1,0.69,5.26-1.05C202.29,133.75,201.82,131.4,200.07,130.24z"/>
					<path d="M195.87,188.38l-7.58,5.06c-1.74,1.16-2.21,3.52-1.05,5.26c1.16,1.74,3.52,2.21,5.26,1.05l7.58-5.06
						c1.74-1.16,2.21-3.52,1.05-5.26C199.96,187.69,197.61,187.22,195.87,188.38z"/>
					<path d="M197.97,166.25h-7.58c-2.09,0-3.79-1.7-3.79-3.79c0-2.09,1.7-3.79,3.79-3.79h7.58c2.09,0,3.79,1.7,3.79,3.79
						C201.76,164.56,200.06,166.25,197.97,166.25z"/>
					<path d="M312.23,166.25h-7.58c-2.09,0-3.79-1.7-3.79-3.79c0-2.09,1.7-3.79,3.79-3.79h7.58c2.09,0,3.79,1.7,3.79,3.79
						C316.02,164.56,314.32,166.25,312.23,166.25z"/>
				</g>
			</g>
		</g>
	</g>
	<g id="CUSTOM-group_00000039121482777743062440000002280451821287644078_">
		<path d="M376.13,271.07c2.09-0.09,3.71-1.86,3.62-3.95l-0.4-9.11c-0.09-2.09-1.86-3.71-3.95-3.62c-2.09,0.09-3.71,1.86-3.62,3.95
			l0.4,9.11C372.27,269.54,374.04,271.16,376.13,271.07z"/>
		<path d="M415.4,288.9l-9.11,0.39c-2.09,0.09-3.72,1.86-3.63,3.95c0.09,2.09,1.86,3.72,3.95,3.63l9.11-0.39
			c2.09-0.09,3.72-1.86,3.63-3.95C419.26,290.43,417.5,288.81,415.4,288.9z"/>
		<path d="M405.1,270.48l-4.74,5.92c-1.31,1.63-3.69,1.9-5.33,0.59c-1.63-1.31-1.9-3.69-0.59-5.33l4.74-5.92
			c1.31-1.64,3.69-1.9,5.33-0.59C406.14,266.46,406.41,268.85,405.1,270.48z"/>
	</g>
	<g>
		<text transform="matrix(1 0 0 1 98.2183 364.6385)" class="st2 st3">Scola</text>
	</g>
	<text transform="matrix(1 0 0 1 112.9995 411.5253)" class="st4 st5 st6">Learn, create &amp; share</text>
</g>
</svg>
